<svg width="32" height="23" viewBox="0 0 32 23" fill="none" xmlns="http://www.w3.org/2000/svg">
<path d="M0 18.5385C0.0356824 15.7196 0.492417 13.2147 1.10616 10.7312C1.61285 8.68304 2.17663 6.64914 3.08296 4.72942C3.66102 3.50195 4.36753 2.36011 5.47368 1.53941C7.07939 0.354757 8.85638 0.0692977 10.7832 0.568852C11.8751 0.847175 12.967 1.13263 14.0731 1.31105C16.1427 1.64646 18.1909 1.41809 20.2034 0.847175C20.8528 0.661626 21.5094 0.468941 22.1731 0.397576C24.5995 0.12639 26.5049 1.06127 27.9108 3.03808C28.9242 4.45824 29.5236 6.07108 30.0375 7.71961C30.8439 10.3173 31.4862 12.9578 31.8073 15.6625C32.0071 17.3539 32.1213 19.0524 31.7574 20.7366C31.6646 21.1648 31.529 21.5858 31.3434 21.9783C30.851 23.0131 29.909 23.3842 28.8171 23.0274C28.0678 22.7847 27.4326 22.3423 26.8831 21.7928C26.2123 21.1219 25.5129 20.4582 24.9563 19.6946C23.8501 18.1817 22.3657 17.518 20.5388 17.518C17.5558 17.5109 14.5727 17.5037 11.5897 17.5323C10.9688 17.5394 10.3408 17.6536 9.71989 17.7678C8.58519 17.9819 7.843 18.7526 7.12221 19.5876C6.33006 20.5011 5.48796 21.3788 4.60303 22.1995C4.00357 22.7633 3.26851 23.1558 2.39072 23.1487C1.72703 23.1416 1.19893 22.8704 0.820696 22.3137C0.335415 21.5929 0.178412 20.7651 0.0785013 19.923C0.0285459 19.3878 0.0214095 18.8383 0 18.5385ZM6.8653 6.642C5.30954 6.64914 4.0678 7.89802 4.07493 9.46092C4.07493 11.0167 5.33809 12.287 6.87957 12.287C8.41392 12.287 9.66994 11.0095 9.66994 9.45378C9.66994 7.89089 8.42105 6.63487 6.8653 6.642ZM19.818 8.09071C19.0544 8.09071 18.4407 8.71872 18.4478 9.47519C18.455 10.2317 19.0901 10.8597 19.8394 10.8525C20.5959 10.8454 21.2096 10.2174 21.2025 9.45378C21.2025 8.69018 20.5888 8.08357 19.818 8.09071ZM24.2141 6.42077C24.2141 5.65717 23.5932 5.03629 22.8368 5.04343C22.0803 5.05057 21.4737 5.67144 21.4737 6.43504C21.4737 7.20579 22.0803 7.81239 22.851 7.80525C23.6146 7.80525 24.2141 7.19151 24.2141 6.42077ZM24.2141 12.4939C24.2141 11.7303 23.6004 11.1094 22.8439 11.1023C22.0946 11.0952 21.4737 11.7232 21.4737 12.4868C21.4737 13.2504 22.0803 13.8713 22.8368 13.8713C23.6004 13.8713 24.2141 13.2575 24.2141 12.4939ZM25.8626 8.09071C25.0919 8.09071 24.4853 8.69731 24.4853 9.46805C24.4853 10.2317 25.1133 10.8597 25.8698 10.8454C26.6191 10.8383 27.2186 10.2317 27.2257 9.47519C27.2328 8.70445 26.6334 8.09071 25.8626 8.09071Z" fill="black"/>
</svg>
