<svg width="20" height="32" viewBox="0 0 20 32" fill="none" xmlns="http://www.w3.org/2000/svg">
<path d="M10.8013 2.43938C11.317 2.38509 11.792 2.32402 12.2601 2.28331C13.4883 2.17474 14.0583 2.55473 14.4111 3.74217C14.5061 4.07466 14.6825 4.28501 14.9743 4.44107C15.9989 4.97033 17.0235 5.49281 18.0277 6.04921C18.8624 6.51062 19.0795 6.95846 18.9302 7.88806C18.7809 8.81087 18.3806 9.63191 17.7224 10.3037C17.2474 10.7922 16.7114 10.9686 16.0328 10.6904C14.9472 10.2426 13.7801 10.1476 12.6266 10.0119C11.9887 9.93725 11.3577 9.80154 10.7334 9.66584C10.2177 9.55048 9.91918 9.57763 9.77669 9.83547C9.63419 10.1001 9.74954 10.4801 10.1567 10.7651C10.9709 11.335 11.8191 11.8507 12.6469 12.4071C13.6376 13.0721 14.6554 13.7099 15.6054 14.436C16.4875 15.1145 17.1321 16.0034 17.3899 17.123C17.6749 18.3512 17.3696 19.4979 16.8607 20.6039C16.7453 20.8618 16.596 21.106 16.4807 21.3571C16.3246 21.6964 16.0668 21.8253 15.6936 21.8185C12.8573 21.8117 10.0142 21.8117 7.17787 21.8117C6.36362 21.8117 5.54937 21.8117 4.73512 21.8117C4.0973 21.8117 3.82588 21.3707 4.14479 20.821C4.78941 19.715 4.78941 18.5751 4.26693 17.4419C3.99551 16.8584 3.64946 16.3155 3.3034 15.7727C2.40094 14.3817 1.3967 13.045 0.738517 11.5115C-0.130016 9.51656 -0.292866 7.46736 0.575667 5.41138C1.27456 3.75574 2.54344 2.62258 4.07694 1.76083C5.65115 0.878731 7.36786 0.403752 9.13886 0.132336C9.48491 0.0780523 9.83097 0.023769 10.1838 0.00341281C10.6859 -0.0237288 10.8013 0.105194 10.8081 0.600529C10.8013 1.19764 10.8013 1.79476 10.8013 2.43938Z" fill="black"/>
<path d="M10.4145 32.0034C7.51031 32.0034 4.59937 32.0034 1.69521 32.0034C1.01667 32.0034 0.819896 31.7863 0.908107 31.1145C0.96239 30.6667 1.04381 30.2189 1.10488 29.771C1.13881 29.4928 1.2813 29.3164 1.54594 29.2282C2.2584 28.9975 2.69946 28.509 2.79445 27.7693C2.88945 27.0501 2.59089 26.4869 2.01413 26.0323C1.86485 25.9169 1.74271 25.6523 1.7495 25.4623C1.76985 24.9941 1.85128 24.5191 1.94627 24.0577C2.01413 23.7185 2.27876 23.6031 2.61124 23.6031C3.61549 23.6031 4.62651 23.6031 5.63075 23.6031C9.76985 23.6031 13.909 23.6099 18.0481 23.5963C18.6655 23.5963 18.9505 23.7795 18.9844 24.3834C19.0048 24.7295 19.0862 25.0755 19.1405 25.4216C19.1948 25.7473 19.0048 25.9441 18.7673 26.1205C17.9463 26.7515 17.8038 27.905 18.4891 28.665C18.7062 28.9025 19.0523 29.0179 19.3169 29.2282C19.4933 29.3639 19.7037 29.5335 19.7512 29.7303C19.8733 30.2121 19.9208 30.7074 19.9751 31.2028C20.0362 31.7659 19.819 31.9967 19.2491 31.9967C16.2906 32.0034 13.3526 32.0034 10.4145 32.0034Z" fill="black"/>
</svg>
