<svg width="340" height="340" viewBox="0 0 340 340" fill="none" xmlns="http://www.w3.org/2000/svg">
<g filter="url(#filter0_d_6947_61)">
<rect x="82" y="65" width="160" height="160" rx="80" fill="white" shape-rendering="crispEdges"/>
<path d="M135.04 120.176C134.272 120.176 133.541 119.989 132.848 119.616L133.6 118.144C134.016 118.379 134.475 118.496 134.976 118.496C135.648 118.496 136.235 118.091 136.736 117.28L132.064 108.8H134.272L137.76 115.312L140.832 108.8H142.96L138.592 117.552C137.728 119.301 136.544 120.176 135.04 120.176ZM144.599 122.56V111.552H146.535V112.96C147.281 111.904 148.236 111.376 149.399 111.376C150.465 111.376 151.388 111.776 152.167 112.576C152.945 113.365 153.335 114.437 153.335 115.792C153.335 117.125 152.945 118.192 152.167 118.992C151.388 119.781 150.465 120.176 149.399 120.176C148.236 120.176 147.281 119.68 146.535 118.688V122.56H144.599ZM148.951 118.496C149.633 118.496 150.204 118.245 150.663 117.744C151.132 117.243 151.367 116.581 151.367 115.76C151.367 114.96 151.132 114.309 150.663 113.808C150.193 113.307 149.623 113.056 148.951 113.056C148.279 113.056 147.697 113.312 147.207 113.824C146.727 114.336 146.487 114.992 146.487 115.792C146.487 116.581 146.727 117.232 147.207 117.744C147.697 118.245 148.279 118.496 148.951 118.496ZM159.334 120.192C158.054 120.192 156.987 119.765 156.134 118.912C155.28 118.059 154.854 117.019 154.854 115.792C154.854 114.565 155.286 113.525 156.15 112.672C157.014 111.808 158.086 111.376 159.366 111.376C160.646 111.376 161.712 111.803 162.566 112.656C163.43 113.509 163.862 114.555 163.862 115.792C163.862 117.008 163.43 118.048 162.566 118.912C161.702 119.765 160.624 120.192 159.334 120.192ZM159.366 118.512C160.134 118.512 160.752 118.251 161.222 117.728C161.691 117.205 161.926 116.56 161.926 115.792C161.926 115.035 161.68 114.395 161.19 113.872C160.699 113.339 160.08 113.072 159.334 113.072C158.576 113.072 157.963 113.333 157.494 113.856C157.024 114.379 156.79 115.024 156.79 115.792C156.79 116.539 157.035 117.179 157.526 117.712C158.016 118.245 158.63 118.512 159.366 118.512ZM165.833 120V111.552H167.753V115.6L171.433 111.552H173.705L170.425 115.104L173.977 120H171.689L169.129 116.512L167.753 117.968V120H165.833ZM175.318 120V111.552H177.206V117.216C178.976 114.699 180.31 112.811 181.206 111.552H183.03V120H181.158V114.368L177.142 120H175.318ZM184.994 122.32L184.786 121.504C185.704 121.323 186.162 120.88 186.162 120.176C186.162 120.155 186.157 120.123 186.146 120.08C186.146 120.048 186.146 120.021 186.146 120H185.33V117.808H187.458V119.664C187.458 120.528 187.256 121.168 186.85 121.584C186.445 122.011 185.826 122.256 184.994 122.32ZM125.505 140V131.552H127.425V135.6L131.105 131.552H133.377L130.097 135.104L133.649 140H131.361L128.801 136.512L127.425 137.968V140H125.505ZM139.005 140.192C137.725 140.192 136.659 139.765 135.805 138.912C134.952 138.059 134.525 137.019 134.525 135.792C134.525 134.565 134.957 133.525 135.821 132.672C136.685 131.808 137.757 131.376 139.037 131.376C140.317 131.376 141.384 131.803 142.237 132.656C143.101 133.509 143.533 134.555 143.533 135.792C143.533 137.008 143.101 138.048 142.237 138.912C141.373 139.765 140.296 140.192 139.005 140.192ZM139.037 138.512C139.805 138.512 140.424 138.251 140.893 137.728C141.363 137.205 141.597 136.56 141.597 135.792C141.597 135.035 141.352 134.395 140.861 133.872C140.371 133.339 139.752 133.072 139.005 133.072C138.248 133.072 137.635 133.333 137.165 133.856C136.696 134.379 136.461 135.024 136.461 135.792C136.461 136.539 136.707 137.179 137.197 137.712C137.688 138.245 138.301 138.512 139.037 138.512ZM147.313 140V133.216H144.593V131.552H151.985V133.216H149.265V140H147.313ZM157.537 140.192C156.257 140.192 155.19 139.765 154.337 138.912C153.483 138.059 153.057 137.019 153.057 135.792C153.057 134.565 153.489 133.525 154.353 132.672C155.217 131.808 156.289 131.376 157.569 131.376C158.849 131.376 159.915 131.803 160.769 132.656C161.633 133.509 162.065 134.555 162.065 135.792C162.065 137.008 161.633 138.048 160.769 138.912C159.905 139.765 158.827 140.192 157.537 140.192ZM157.569 138.512C158.337 138.512 158.955 138.251 159.425 137.728C159.894 137.205 160.129 136.56 160.129 135.792C160.129 135.035 159.883 134.395 159.393 133.872C158.902 133.339 158.283 133.072 157.537 133.072C156.779 133.072 156.166 133.333 155.697 133.856C155.227 134.379 154.993 135.024 154.993 135.792C154.993 136.539 155.238 137.179 155.729 137.712C156.219 138.245 156.833 138.512 157.569 138.512ZM164.036 142.56V131.552H165.972V132.96C166.719 131.904 167.674 131.376 168.836 131.376C169.903 131.376 170.826 131.776 171.604 132.576C172.383 133.365 172.772 134.437 172.772 135.792C172.772 137.125 172.383 138.192 171.604 138.992C170.826 139.781 169.903 140.176 168.836 140.176C167.674 140.176 166.719 139.68 165.972 138.688V142.56H164.036ZM168.388 138.496C169.071 138.496 169.642 138.245 170.1 137.744C170.57 137.243 170.804 136.581 170.804 135.76C170.804 134.96 170.57 134.309 170.1 133.808C169.631 133.307 169.06 133.056 168.388 133.056C167.716 133.056 167.135 133.312 166.644 133.824C166.164 134.336 165.924 134.992 165.924 135.792C165.924 136.581 166.164 137.232 166.644 137.744C167.135 138.245 167.716 138.496 168.388 138.496ZM174.755 140V131.552H176.691V134.512H178.467C179.47 134.512 180.28 134.736 180.899 135.184C181.518 135.632 181.827 136.299 181.827 137.184C181.827 138.059 181.539 138.747 180.963 139.248C180.387 139.749 179.603 140 178.611 140H174.755ZM176.691 138.432H178.355C178.846 138.432 179.224 138.325 179.491 138.112C179.758 137.899 179.891 137.589 179.891 137.184C179.891 136.811 179.752 136.523 179.475 136.32C179.208 136.117 178.824 136.016 178.323 136.016H176.691V138.432ZM183.107 140V131.552H185.043V140H183.107ZM191.346 140.192C190.108 140.192 189.074 139.781 188.242 138.96C187.42 138.139 187.01 137.077 187.01 135.776C187.01 134.549 187.399 133.509 188.178 132.656C188.956 131.803 189.943 131.376 191.138 131.376C192.418 131.376 193.41 131.813 194.114 132.688C194.828 133.552 195.186 134.629 195.186 135.92C195.186 136.155 195.175 136.336 195.154 136.464H188.946C189.052 137.136 189.324 137.664 189.762 138.048C190.199 138.421 190.738 138.608 191.378 138.608C192.21 138.608 192.972 138.272 193.666 137.6L194.802 138.608C193.927 139.664 192.775 140.192 191.346 140.192ZM188.93 135.184H193.266C193.202 134.533 192.983 134 192.61 133.584C192.236 133.168 191.74 132.96 191.122 132.96C190.535 132.96 190.044 133.168 189.65 133.584C189.255 133.989 189.015 134.523 188.93 135.184ZM123.396 160V151.552H125.332V154.976H129.06V151.552H130.996V160H129.06V156.592H125.332V160H123.396ZM133.427 162.56V151.552H135.363V152.96C136.11 151.904 137.064 151.376 138.227 151.376C139.294 151.376 140.216 151.776 140.995 152.576C141.774 153.365 142.163 154.437 142.163 155.792C142.163 157.125 141.774 158.192 140.995 158.992C140.216 159.781 139.294 160.176 138.227 160.176C137.064 160.176 136.11 159.68 135.363 158.688V162.56H133.427ZM137.779 158.496C138.462 158.496 139.032 158.245 139.491 157.744C139.96 157.243 140.195 156.581 140.195 155.76C140.195 154.96 139.96 154.309 139.491 153.808C139.022 153.307 138.451 153.056 137.779 153.056C137.107 153.056 136.526 153.312 136.035 153.824C135.555 154.336 135.315 154.992 135.315 155.792C135.315 156.581 135.555 157.232 136.035 157.744C136.526 158.245 137.107 158.496 137.779 158.496ZM151.234 160H149.314V158.96C148.631 159.771 147.719 160.176 146.578 160.176C145.735 160.176 145.02 159.947 144.434 159.488C143.858 159.019 143.57 158.368 143.57 157.536C143.57 156.629 143.884 155.941 144.514 155.472C145.143 155.003 145.97 154.768 146.994 154.768C147.815 154.768 148.594 154.885 149.33 155.12V154.96C149.33 154.373 149.148 153.925 148.786 153.616C148.434 153.307 147.922 153.152 147.25 153.152C146.482 153.152 145.676 153.328 144.834 153.68L144.306 152.128C145.351 151.659 146.423 151.424 147.522 151.424C148.748 151.424 149.671 151.733 150.29 152.352C150.919 152.971 151.234 153.851 151.234 154.992V160ZM149.362 156.944V156.464C148.786 156.24 148.14 156.128 147.426 156.128C146.818 156.128 146.343 156.245 146.002 156.48C145.66 156.715 145.49 157.045 145.49 157.472C145.49 157.856 145.644 158.16 145.954 158.384C146.263 158.608 146.652 158.72 147.122 158.72C147.772 158.72 148.306 158.555 148.722 158.224C149.148 157.893 149.362 157.467 149.362 156.944ZM153.536 160V151.552H157.872C158.715 151.552 159.387 151.744 159.888 152.128C160.4 152.501 160.656 153.013 160.656 153.664C160.656 154.549 160.203 155.195 159.296 155.6C160.459 155.931 161.04 156.635 161.04 157.712C161.04 158.427 160.758 158.987 160.192 159.392C159.638 159.797 158.88 160 157.92 160H153.536ZM155.44 158.464H157.632C158.091 158.464 158.443 158.368 158.688 158.176C158.944 157.973 159.072 157.707 159.072 157.376C159.072 157.056 158.939 156.805 158.672 156.624C158.416 156.443 158.038 156.352 157.536 156.352H155.44V158.464ZM155.44 155.04H157.424C157.819 155.04 158.128 154.944 158.352 154.752C158.576 154.56 158.688 154.309 158.688 154C158.688 153.712 158.587 153.483 158.384 153.312C158.182 153.131 157.872 153.04 157.456 153.04H155.44V155.04ZM162.206 160L164.542 156.832C163.944 156.651 163.464 156.347 163.102 155.92C162.75 155.483 162.574 154.944 162.574 154.304C162.574 153.472 162.867 152.805 163.454 152.304C164.04 151.803 164.856 151.552 165.902 151.552H170.142V160H168.206V157.152H166.478L164.478 160H162.206ZM166.174 155.696H168.206V153.12H166.158C165.646 153.12 165.24 153.237 164.942 153.472C164.654 153.696 164.51 154.005 164.51 154.4C164.51 154.805 164.659 155.125 164.958 155.36C165.267 155.584 165.672 155.696 166.174 155.696ZM174.376 160V153.216H171.656V151.552H179.048V153.216H176.328V160H174.376ZM184.487 160.192C183.239 160.192 182.199 159.771 181.367 158.928C180.535 158.075 180.119 157.04 180.119 155.824V155.792C180.119 154.576 180.535 153.536 181.367 152.672C182.21 151.808 183.255 151.376 184.503 151.376C185.869 151.376 186.994 151.861 187.879 152.832L186.679 154.128C186.007 153.424 185.277 153.072 184.487 153.072C183.794 153.072 183.213 153.333 182.743 153.856C182.285 154.379 182.055 155.013 182.055 155.76V155.792C182.055 156.56 182.29 157.205 182.759 157.728C183.239 158.251 183.847 158.512 184.583 158.512C185.362 158.512 186.093 158.16 186.775 157.456L187.943 158.608C187.485 159.12 186.983 159.515 186.439 159.792C185.906 160.059 185.255 160.192 184.487 160.192ZM188.878 160L191.214 156.832C190.616 156.651 190.136 156.347 189.774 155.92C189.422 155.483 189.246 154.944 189.246 154.304C189.246 153.472 189.539 152.805 190.126 152.304C190.712 151.803 191.528 151.552 192.574 151.552H196.814V160H194.878V157.152H193.15L191.15 160H188.878ZM192.846 155.696H194.878V153.12H192.83C192.318 153.12 191.912 153.237 191.614 153.472C191.326 153.696 191.182 154.005 191.182 154.4C191.182 154.805 191.331 155.125 191.63 155.36C191.939 155.584 192.344 155.696 192.846 155.696ZM138.209 182.032V178.336H139.121C139.75 177.077 140.065 175.163 140.065 172.592V171.552H146.609V178.336H147.809L147.553 182.032H145.937V180H140.017L139.825 182.032H138.209ZM141.105 178.336H144.673V173.216H141.889V174.336C141.889 175.904 141.627 177.237 141.105 178.336ZM153.291 180.192C152.054 180.192 151.019 179.781 150.187 178.96C149.366 178.139 148.955 177.077 148.955 175.776C148.955 174.549 149.344 173.509 150.123 172.656C150.902 171.803 151.888 171.376 153.083 171.376C154.363 171.376 155.355 171.813 156.059 172.688C156.774 173.552 157.131 174.629 157.131 175.92C157.131 176.155 157.12 176.336 157.099 176.464H150.891C150.998 177.136 151.27 177.664 151.707 178.048C152.144 178.421 152.683 178.608 153.323 178.608C154.155 178.608 154.918 178.272 155.611 177.6L156.747 178.608C155.872 179.664 154.72 180.192 153.291 180.192ZM150.875 175.184H155.211C155.147 174.533 154.928 174 154.555 173.584C154.182 173.168 153.686 172.96 153.067 172.96C152.48 172.96 151.99 173.168 151.595 173.584C151.2 173.989 150.96 174.523 150.875 175.184ZM160.883 180V173.216H158.163V171.552H165.555V173.216H162.835V180H160.883ZM166.323 180L168.659 176.832C168.062 176.651 167.582 176.347 167.219 175.92C166.867 175.483 166.691 174.944 166.691 174.304C166.691 173.472 166.984 172.805 167.571 172.304C168.158 171.803 168.974 171.552 170.019 171.552H174.259V180H172.323V177.152H170.595L168.595 180H166.323ZM170.291 175.696H172.323V173.12H170.275C169.763 173.12 169.358 173.237 169.059 173.472C168.771 173.696 168.627 174.005 168.627 174.4C168.627 174.805 168.776 175.125 169.075 175.36C169.384 175.584 169.79 175.696 170.291 175.696ZM176.685 180V171.552H178.605L181.245 175.472L183.901 171.552H185.821V180H183.869V174.368L181.213 178.16L178.573 174.4V180H176.685Z" fill="#141414"/>
</g>
<defs>
<filter id="filter0_d_6947_61" x="0" y="0" width="340" height="340" filterUnits="userSpaceOnUse" color-interpolation-filters="sRGB">
<feFlood flood-opacity="0" result="BackgroundImageFix"/>
<feColorMatrix in="SourceAlpha" type="matrix" values="0 0 0 0 0 0 0 0 0 0 0 0 0 0 0 0 0 0 127 0" result="hardAlpha"/>
<feOffset dx="8" dy="25"/>
<feGaussianBlur stdDeviation="45"/>
<feComposite in2="hardAlpha" operator="out"/>
<feColorMatrix type="matrix" values="0 0 0 0 0 0 0 0 0 0 0 0 0 0 0 0 0 0 0.1 0"/>
<feBlend mode="normal" in2="BackgroundImageFix" result="effect1_dropShadow_6947_61"/>
<feBlend mode="normal" in="SourceGraphic" in2="effect1_dropShadow_6947_61" result="shape"/>
</filter>
</defs>
</svg>
