<svg width="20" height="20" viewBox="0 0 20 20" fill="none" xmlns="http://www.w3.org/2000/svg">
<path d="M10 1.65039C11.3548 1.65039 12.6792 2.052 13.8057 2.80469C14.9321 3.55737 15.8097 4.62729 16.3281 5.87891C16.8465 7.1304 16.9829 8.50735 16.7188 9.83594C16.4544 11.1647 15.8017 12.3858 14.8438 13.3438L10 18.1875L5.15625 13.3438C4.19827 12.3858 3.54555 11.1647 3.28125 9.83594C3.01708 8.50735 3.15351 7.1304 3.67188 5.87891C4.19032 4.62729 5.06793 3.55737 6.19434 2.80469C7.32081 2.052 8.6452 1.65039 10 1.65039Z" stroke="black" stroke-width="1.3"/>
<path d="M10.0005 7.65033C10.5618 7.65051 11.0171 8.10555 11.0171 8.66693C11.0169 9.22816 10.5617 9.68336 10.0005 9.68353C9.43911 9.68353 8.98406 9.22827 8.98389 8.66693C8.98389 8.10544 9.439 7.65033 10.0005 7.65033Z" stroke="black" stroke-width="1.3"/>
</svg>
