<svg width="117" height="50" viewBox="0 0 117 50" fill="none" xmlns="http://www.w3.org/2000/svg">
<path d="M1.16 17V0.199999H4.064V12.464L12.56 0.199999H15.32V17H12.416V4.76L3.944 17H1.16ZM19.3396 17V4.328H28.3156V6.824H22.2436V17H19.3396ZM30.6131 20.84V4.328H33.5171V6.44C34.6371 4.856 36.0691 4.064 37.8131 4.064C39.4131 4.064 40.7971 4.664 41.9651 5.864C43.1331 7.048 43.7171 8.656 43.7171 10.688C43.7171 12.688 43.1331 14.288 41.9651 15.488C40.7971 16.672 39.4131 17.264 37.8131 17.264C36.0691 17.264 34.6371 16.52 33.5171 15.032V20.84H30.6131ZM37.1411 14.744C38.1651 14.744 39.0211 14.368 39.7091 13.616C40.4131 12.864 40.7651 11.872 40.7651 10.64C40.7651 9.44 40.4131 8.464 39.7091 7.712C39.0051 6.96 38.1491 6.584 37.1411 6.584C36.1331 6.584 35.2611 6.968 34.5251 7.736C33.8051 8.504 33.4451 9.488 33.4451 10.688C33.4451 11.872 33.8051 12.848 34.5251 13.616C35.2611 14.368 36.1331 14.744 37.1411 14.744ZM52.7152 17.288C50.7952 17.288 49.1952 16.648 47.9152 15.368C46.6352 14.088 45.9952 12.528 45.9952 10.688C45.9952 8.848 46.6432 7.288 47.9392 6.008C49.2352 4.712 50.8432 4.064 52.7632 4.064C54.6832 4.064 56.2832 4.704 57.5632 5.984C58.8592 7.264 59.5072 8.832 59.5072 10.688C59.5072 12.512 58.8592 14.072 57.5632 15.368C56.2672 16.648 54.6512 17.288 52.7152 17.288ZM52.7632 14.768C53.9152 14.768 54.8432 14.376 55.5472 13.592C56.2512 12.808 56.6032 11.84 56.6032 10.688C56.6032 9.552 56.2352 8.592 55.4992 7.808C54.7632 7.008 53.8352 6.608 52.7152 6.608C51.5792 6.608 50.6592 7 49.9552 7.784C49.2512 8.568 48.8992 9.536 48.8992 10.688C48.8992 11.808 49.2672 12.768 50.0032 13.568C50.7392 14.368 51.6592 14.768 52.7632 14.768ZM62.4646 17V4.328H68.9686C70.2326 4.328 71.2406 4.616 71.9926 5.192C72.7606 5.752 73.1446 6.52 73.1446 7.496C73.1446 8.824 72.4646 9.792 71.1046 10.4C72.8486 10.896 73.7206 11.952 73.7206 13.568C73.7206 14.64 73.2966 15.48 72.4486 16.088C71.6166 16.696 70.4806 17 69.0406 17H62.4646ZM65.3206 14.696H68.6086C69.2966 14.696 69.8246 14.552 70.1926 14.264C70.5766 13.96 70.7686 13.56 70.7686 13.064C70.7686 12.584 70.5686 12.208 70.1686 11.936C69.7846 11.664 69.2166 11.528 68.4646 11.528H65.3206V14.696ZM65.3206 9.56H68.2966C68.8886 9.56 69.3526 9.416 69.6886 9.128C70.0246 8.84 70.1926 8.464 70.1926 8C70.1926 7.568 70.0406 7.224 69.7366 6.968C69.4326 6.696 68.9686 6.56 68.3446 6.56H65.3206V9.56ZM76.6209 17V4.328H79.5249V8.768H82.1889C83.6929 8.768 84.9089 9.104 85.8369 9.776C86.7649 10.448 87.2289 11.448 87.2289 12.776C87.2289 14.088 86.7969 15.12 85.9329 15.872C85.0689 16.624 83.8929 17 82.4049 17H76.6209ZM79.5249 14.648H82.0209C82.7569 14.648 83.3249 14.488 83.7249 14.168C84.1249 13.848 84.3249 13.384 84.3249 12.776C84.3249 12.216 84.1169 11.784 83.7009 11.48C83.3009 11.176 82.7249 11.024 81.9729 11.024H79.5249V14.648ZM89.1489 17V4.328H92.0529V17H89.1489ZM101.507 17.288C99.651 17.288 98.099 16.672 96.851 15.44C95.619 14.208 95.003 12.616 95.003 10.664C95.003 8.824 95.587 7.264 96.755 5.984C97.923 4.704 99.403 4.064 101.195 4.064C103.115 4.064 104.603 4.72 105.659 6.032C106.731 7.328 107.267 8.944 107.267 10.88C107.267 11.232 107.251 11.504 107.219 11.696H97.907C98.067 12.704 98.475 13.496 99.131 14.072C99.787 14.632 100.595 14.912 101.555 14.912C102.803 14.912 103.947 14.408 104.987 13.4L106.691 14.912C105.379 16.496 103.651 17.288 101.507 17.288ZM97.883 9.776H104.387C104.291 8.8 103.963 8 103.403 7.376C102.843 6.752 102.099 6.44 101.171 6.44C100.291 6.44 99.555 6.752 98.963 7.376C98.371 7.984 98.011 8.784 97.883 9.776ZM0.824 49V36.328H3.704L7.664 42.208L11.648 36.328H14.528V49H11.6V40.552L7.616 46.24L3.656 40.6V49H0.824ZM23.9758 49.288C22.1198 49.288 20.5678 48.672 19.3198 47.44C18.0878 46.208 17.4718 44.616 17.4718 42.664C17.4718 40.824 18.0558 39.264 19.2238 37.984C20.3918 36.704 21.8718 36.064 23.6638 36.064C25.5838 36.064 27.0718 36.72 28.1278 38.032C29.1998 39.328 29.7358 40.944 29.7358 42.88C29.7358 43.232 29.7198 43.504 29.6878 43.696H20.3758C20.5358 44.704 20.9438 45.496 21.5998 46.072C22.2558 46.632 23.0638 46.912 24.0238 46.912C25.2718 46.912 26.4158 46.408 27.4558 45.4L29.1598 46.912C27.8478 48.496 26.1198 49.288 23.9758 49.288ZM20.3518 41.776H26.8558C26.7598 40.8 26.4318 40 25.8718 39.376C25.3118 38.752 24.5678 38.44 23.6398 38.44C22.7598 38.44 22.0238 38.752 21.4318 39.376C20.8398 39.984 20.4798 40.784 20.3518 41.776ZM31.5481 49L36.2041 42.568L31.7161 36.328H34.8841L37.8121 40.504L40.7401 36.328H43.8361L39.3481 42.496L44.0281 49H40.8601L37.7401 44.56L34.6441 49H31.5481ZM57.206 49H54.326V47.44C53.302 48.656 51.934 49.264 50.222 49.264C48.958 49.264 47.886 48.92 47.006 48.232C46.142 47.528 45.71 46.552 45.71 45.304C45.71 43.944 46.182 42.912 47.126 42.208C48.07 41.504 49.31 41.152 50.846 41.152C52.078 41.152 53.246 41.328 54.35 41.68V41.44C54.35 40.56 54.078 39.888 53.534 39.424C53.006 38.96 52.238 38.728 51.23 38.728C50.078 38.728 48.87 38.992 47.606 39.52L46.814 37.192C48.382 36.488 49.99 36.136 51.638 36.136C53.478 36.136 54.862 36.6 55.79 37.528C56.734 38.456 57.206 39.776 57.206 41.488V49ZM54.398 44.416V43.696C53.534 43.36 52.566 43.192 51.494 43.192C50.582 43.192 49.87 43.368 49.358 43.72C48.846 44.072 48.59 44.568 48.59 45.208C48.59 45.784 48.822 46.24 49.286 46.576C49.75 46.912 50.334 47.08 51.038 47.08C52.014 47.08 52.814 46.832 53.438 46.336C54.078 45.84 54.398 45.2 54.398 44.416ZM60.6599 49V36.328H63.5639V41.464H69.1559V36.328H72.0599V49H69.1559V43.888H63.5639V49H60.6599ZM75.7068 49V36.328H78.5388V44.824C81.1948 41.048 83.1948 38.216 84.5388 36.328H87.2748V49H84.4668V40.552L78.4428 49H75.7068ZM90.9178 49V36.328H93.7978V42.4L99.3178 36.328H102.726L97.8058 41.656L103.134 49H99.7018L95.8618 43.768L93.7978 45.952V49H90.9178ZM105.144 49V36.328H107.976V44.824C110.632 41.048 112.632 38.216 113.976 36.328H116.712V49H113.904V40.552L107.88 49H105.144Z" fill="#141414"/>
</svg>
