<svg width="146" height="53" viewBox="0 0 146 53" fill="none" xmlns="http://www.w3.org/2000/svg">
<path d="M2.16 17.192C1.472 17.192 0.792 17.104 0.12 16.928L0.408 14.504C0.696 14.6 1.016 14.648 1.368 14.648C1.752 14.648 2.08 14.592 2.352 14.48C2.64 14.352 2.936 14.064 3.24 13.616C3.56 13.168 3.808 12.56 3.984 11.792C4.176 11.008 4.336 9.92 4.464 8.528C4.592 7.136 4.656 5.464 4.656 3.512V0.199999H16.176V17H13.224V2.864H7.416V4.376C7.416 6.984 7.304 9.152 7.08 10.88C6.856 12.592 6.504 13.904 6.024 14.816C5.544 15.712 5 16.336 4.392 16.688C3.8 17.024 3.056 17.192 2.16 17.192ZM26.1996 17.288C24.2796 17.288 22.6796 16.648 21.3996 15.368C20.1196 14.088 19.4796 12.528 19.4796 10.688C19.4796 8.848 20.1276 7.288 21.4236 6.008C22.7196 4.712 24.3276 4.064 26.2476 4.064C28.1676 4.064 29.7676 4.704 31.0476 5.984C32.3436 7.264 32.9916 8.832 32.9916 10.688C32.9916 12.512 32.3436 14.072 31.0476 15.368C29.7516 16.648 28.1356 17.288 26.1996 17.288ZM26.2476 14.768C27.3996 14.768 28.3276 14.376 29.0316 13.592C29.7356 12.808 30.0876 11.84 30.0876 10.688C30.0876 9.552 29.7196 8.592 28.9836 7.808C28.2476 7.008 27.3196 6.608 26.1996 6.608C25.0636 6.608 24.1436 7 23.4396 7.784C22.7356 8.568 22.3836 9.536 22.3836 10.688C22.3836 11.808 22.7516 12.768 23.4876 13.568C24.2236 14.368 25.1436 14.768 26.2476 14.768ZM35.949 17V4.328H44.925V6.824H38.853V17H35.949ZM47.2224 17V4.328H50.0544V12.824C52.7104 9.048 54.7104 6.216 56.0544 4.328H58.7904V17H55.9824V8.552L49.9584 17H47.2224ZM70.1374 17V12.272C68.8894 12.912 67.6334 13.232 66.3694 13.232C65.0734 13.232 64.0254 12.888 63.2254 12.2C62.4414 11.496 62.0494 10.512 62.0494 9.248V4.328H64.9534V8.552C64.9534 9.16 65.1454 9.68 65.5294 10.112C65.9134 10.544 66.4174 10.76 67.0414 10.76C68.1294 10.76 69.1614 10.48 70.1374 9.92V4.328H73.0414V17H70.1374ZM82.4914 17.288C80.6354 17.288 79.0834 16.672 77.8354 15.44C76.6034 14.208 75.9874 12.616 75.9874 10.664C75.9874 8.824 76.5714 7.264 77.7394 5.984C78.9074 4.704 80.3874 4.064 82.1794 4.064C84.0994 4.064 85.5874 4.72 86.6434 6.032C87.7154 7.328 88.2514 8.944 88.2514 10.88C88.2514 11.232 88.2354 11.504 88.2034 11.696H78.8914C79.0514 12.704 79.4594 13.496 80.1154 14.072C80.7714 14.632 81.5794 14.912 82.5394 14.912C83.7874 14.912 84.9314 14.408 85.9714 13.4L87.6754 14.912C86.3634 16.496 84.6354 17.288 82.4914 17.288ZM78.8674 9.776H85.3714C85.2754 8.8 84.9474 8 84.3874 7.376C83.8274 6.752 83.0834 6.44 82.1554 6.44C81.2754 6.44 80.5394 6.752 79.9474 7.376C79.3554 7.984 78.9954 8.784 78.8674 9.776ZM97.0238 17.288C95.1518 17.288 93.5918 16.656 92.3438 15.392C91.0958 14.112 90.4718 12.56 90.4718 10.736V10.688C90.4718 8.864 91.0958 7.304 92.3438 6.008C93.6078 4.712 95.1758 4.064 97.0478 4.064C99.0958 4.064 100.784 4.792 102.112 6.248L100.312 8.192C99.3038 7.136 98.2078 6.608 97.0238 6.608C95.9838 6.608 95.1118 7 94.4078 7.784C93.7198 8.568 93.3758 9.52 93.3758 10.64V10.688C93.3758 11.84 93.7278 12.808 94.4318 13.592C95.1518 14.376 96.0638 14.768 97.1678 14.768C98.3358 14.768 99.4318 14.24 100.456 13.184L102.208 14.912C101.52 15.68 100.768 16.272 99.9518 16.688C99.1518 17.088 98.1758 17.288 97.0238 17.288ZM104.762 17V4.328H107.642V10.4L113.162 4.328H116.57L111.65 9.656L116.978 17H113.546L109.706 11.768L107.642 13.952V17H104.762ZM118.988 17V4.328H121.82V12.824C124.476 9.048 126.476 6.216 127.82 4.328H130.556V17H127.748V8.552L121.724 17H118.988ZM140.007 17.288C138.151 17.288 136.599 16.672 135.351 15.44C134.119 14.208 133.503 12.616 133.503 10.664C133.503 8.824 134.087 7.264 135.255 5.984C136.423 4.704 137.903 4.064 139.695 4.064C141.615 4.064 143.103 4.72 144.159 6.032C145.231 7.328 145.767 8.944 145.767 10.88C145.767 11.232 145.751 11.504 145.719 11.696H136.407C136.567 12.704 136.975 13.496 137.631 14.072C138.287 14.632 139.095 14.912 140.055 14.912C141.303 14.912 142.447 14.408 143.487 13.4L145.191 14.912C143.879 16.496 142.151 17.288 140.007 17.288ZM136.383 9.776H142.887C142.791 8.8 142.463 8 141.903 7.376C141.343 6.752 140.599 6.44 139.671 6.44C138.791 6.44 138.055 6.752 137.463 7.376C136.871 7.984 136.511 8.784 136.383 9.776ZM6.144 49.288C3.968 49.288 2.12 48.64 0.6 47.344L1.968 45.424C3.152 46.432 4.48 46.936 5.952 46.936C6.624 46.936 7.192 46.776 7.656 46.456C8.12 46.12 8.352 45.696 8.352 45.184C8.352 44.704 8.128 44.32 7.68 44.032C7.232 43.744 6.6 43.6 5.784 43.6H4.224V41.512H5.784C6.456 41.512 6.992 41.36 7.392 41.056C7.808 40.736 8.016 40.336 8.016 39.856C8.016 39.424 7.816 39.08 7.416 38.824C7.032 38.552 6.536 38.416 5.928 38.416C4.52 38.416 3.32 38.848 2.328 39.712L1.032 37.888C2.424 36.672 4.144 36.064 6.192 36.064C7.584 36.064 8.72 36.384 9.6 37.024C10.48 37.664 10.92 38.48 10.92 39.472C10.92 40.816 10.256 41.776 8.928 42.352C10.464 42.896 11.232 43.92 11.232 45.424C11.232 46.512 10.76 47.432 9.816 48.184C8.872 48.92 7.648 49.288 6.144 49.288ZM24.8779 49H21.9979V47.44C20.9739 48.656 19.6059 49.264 17.8939 49.264C16.6299 49.264 15.5579 48.92 14.6779 48.232C13.8139 47.528 13.3819 46.552 13.3819 45.304C13.3819 43.944 13.8539 42.912 14.7979 42.208C15.7419 41.504 16.9819 41.152 18.5179 41.152C19.7499 41.152 20.9179 41.328 22.0219 41.68V41.44C22.0219 40.56 21.7499 39.888 21.2059 39.424C20.6779 38.96 19.9099 38.728 18.9019 38.728C17.7499 38.728 16.5419 38.992 15.2779 39.52L14.4859 37.192C16.0539 36.488 17.6619 36.136 19.3099 36.136C21.1499 36.136 22.5339 36.6 23.4619 37.528C24.4059 38.456 24.8779 39.776 24.8779 41.488V49ZM22.0699 44.416V43.696C21.2059 43.36 20.2379 43.192 19.1659 43.192C18.2539 43.192 17.5419 43.368 17.0299 43.72C16.5179 44.072 16.2619 44.568 16.2619 45.208C16.2619 45.784 16.4939 46.24 16.9579 46.576C17.4219 46.912 18.0059 47.08 18.7099 47.08C19.6859 47.08 20.4859 46.832 21.1099 46.336C21.7499 45.84 22.0699 45.2 22.0699 44.416ZM26.8678 52.048V46.504H28.2358C29.1798 44.616 29.6518 41.744 29.6518 37.888V36.328H39.4678V46.504H41.2678L40.8838 52.048H38.4598V49H29.5798L29.2918 52.048H26.8678ZM31.2118 46.504H36.5638V38.824H32.3878V40.504C32.3878 42.856 31.9958 44.856 31.2118 46.504ZM54.3154 49H51.4354V47.44C50.4114 48.656 49.0434 49.264 47.3314 49.264C46.0674 49.264 44.9954 48.92 44.1154 48.232C43.2514 47.528 42.8194 46.552 42.8194 45.304C42.8194 43.944 43.2914 42.912 44.2354 42.208C45.1794 41.504 46.4194 41.152 47.9554 41.152C49.1874 41.152 50.3554 41.328 51.4594 41.68V41.44C51.4594 40.56 51.1874 39.888 50.6434 39.424C50.1154 38.96 49.3474 38.728 48.3394 38.728C47.1874 38.728 45.9794 38.992 44.7154 39.52L43.9234 37.192C45.4914 36.488 47.0994 36.136 48.7474 36.136C50.5874 36.136 51.9714 36.6 52.8994 37.528C53.8434 38.456 54.3154 39.776 54.3154 41.488V49ZM51.5074 44.416V43.696C50.6434 43.36 49.6754 43.192 48.6034 43.192C47.6914 43.192 46.9794 43.368 46.4674 43.72C45.9554 44.072 45.6994 44.568 45.6994 45.208C45.6994 45.784 45.9314 46.24 46.3954 46.576C46.8594 46.912 47.4434 47.08 48.1474 47.08C49.1234 47.08 49.9234 46.832 50.5474 46.336C51.1874 45.84 51.5074 45.2 51.5074 44.416ZM65.4733 49V44.272C64.2253 44.912 62.9693 45.232 61.7053 45.232C60.4093 45.232 59.3613 44.888 58.5613 44.2C57.7773 43.496 57.3853 42.512 57.3853 41.248V36.328H60.2893V40.552C60.2893 41.16 60.4813 41.68 60.8653 42.112C61.2493 42.544 61.7533 42.76 62.3773 42.76C63.4653 42.76 64.4973 42.48 65.4733 41.92V36.328H68.3773V49H65.4733ZM72.0193 49V36.328H74.8513V44.824C77.5073 41.048 79.5073 38.216 80.8513 36.328H83.5873V49H80.7793V40.552L74.7553 49H72.0193Z" fill="#141414"/>
</svg>
